<svg width="950" height="550" viewBox="0 0 950 550" xmlns="http://www.w3.org/2000/svg">
	<defs>
		<linearGradient id="bg" x1="0" y1="0" x2="1" y2="1">
			<stop offset="0%" stop-color="#063EF9"/>
			<stop offset="100%" stop-color="#945BF1"/>
		</linearGradient>
		<radialGradient id="glowA" cx="50%" cy="50%" r="50%">
			<stop offset="0%" stop-color="#ffffff" stop-opacity="0.28"/>
			<stop offset="100%" stop-color="#ffffff" stop-opacity="0"/>
		</radialGradient>
		<pattern id="dots" width="30" height="30" patternUnits="userSpaceOnUse">
			<circle cx="2" cy="2" r="1.6" fill="#ffffff" fill-opacity="0.16"/>
		</pattern>
	</defs>
	<rect width="950" height="550" rx="28" fill="url(#bg)"/>
	<rect width="950" height="550" rx="28" fill="url(#dots)"/>
	<circle cx="860" cy="460" r="220" fill="url(#glowA)"/>
	<circle cx="110" cy="90" r="180" fill="url(#glowA)"/>
	<g transform="translate(475,300)" fill="#ffffff" opacity="0.95">
		<rect x="-190" y="-40" width="80" height="150" rx="6"/>
		<rect x="-95" y="-90" width="80" height="200" rx="6"/>
		<rect x="0" y="-140" width="80" height="250" rx="6"/>
		<rect x="95" y="-70" width="80" height="180" rx="6"/>
	</g>
	<g transform="translate(475,300)" fill="none" stroke="#ffffff" stroke-width="10" stroke-linecap="round" stroke-linejoin="round">
		<line x1="40" y1="-140" x2="180" y2="-210"/>
		<line x1="180" y1="-210" x2="180" y2="-150"/>
		<line x1="180" y1="-210" x2="230" y2="-190"/>
	</g>
</svg>
